<svg width="61" height="61" viewBox="0 0 61 61" fill="none" xmlns="http://www.w3.org/2000/svg">
<path d="M26.5645 47.2258C26.5645 49.3962 28.3296 51.1613 30.5 51.1613C32.6704 51.1613 34.4355 49.3962 34.4355 47.2258C34.4355 45.0554 32.6704 43.2903 30.5 43.2903C28.3296 43.2903 26.5645 45.0554 26.5645 47.2258ZM32.4677 47.2258C32.4677 48.311 31.5852 49.1935 30.5 49.1935C29.4148 49.1935 28.5323 48.311 28.5323 47.2258C28.5323 46.1406 29.4148 45.2581 30.5 45.2581C31.5852 45.2581 32.4677 46.1406 32.4677 47.2258Z" fill="#B5B5B5"/>
<path d="M40.3387 14.7581H38.371V19.6774H40.3387V14.7581Z" fill="#B5B5B5"/>
<path d="M51.1613 21.0686V7.87098H49.1935V20.254L46.5302 22.9173L47.9214 24.3085L51.1613 21.0686Z" fill="#B5B5B5"/>
<path d="M59.0323 26.9718V15.7419H57.0645V26.1572L54.4012 28.8205L55.7924 30.2117L59.0323 26.9718Z" fill="#B5B5B5"/>
<path d="M39.3548 12.7903C40.9822 12.7903 42.3064 11.466 42.3064 9.83871C42.3064 8.21139 40.9822 6.88709 39.3548 6.88709C37.7275 6.88709 36.4032 8.21139 36.4032 9.83871C36.4032 11.466 37.7275 12.7903 39.3548 12.7903ZM39.3548 8.85484C39.8969 8.85484 40.3387 9.2966 40.3387 9.83871C40.3387 10.3808 39.8969 10.8226 39.3548 10.8226C38.8127 10.8226 38.371 10.3808 38.371 9.83871C38.371 9.2966 38.8127 8.85484 39.3548 8.85484Z" fill="#B5B5B5"/>
<path d="M31.4839 7.87098H29.5161V18.6936H31.4839V7.87098Z" fill="#B5B5B5"/>
<path d="M30.5 5.90323C32.1273 5.90323 33.4516 4.57894 33.4516 2.95161C33.4516 1.32429 32.1273 0 30.5 0C28.8727 0 27.5484 1.32429 27.5484 2.95161C27.5484 4.57894 28.8727 5.90323 30.5 5.90323ZM30.5 1.96774C31.0421 1.96774 31.4839 2.4095 31.4839 2.95161C31.4839 3.49373 31.0421 3.93548 30.5 3.93548C29.9579 3.93548 29.5161 3.49373 29.5161 2.95161C29.5161 2.4095 29.9579 1.96774 30.5 1.96774Z" fill="#B5B5B5"/>
<path d="M50.1774 5.90323C51.8047 5.90323 53.129 4.57894 53.129 2.95161C53.129 1.32429 51.8047 0 50.1774 0C48.5501 0 47.2258 1.32429 47.2258 2.95161C47.2258 4.57894 48.5501 5.90323 50.1774 5.90323ZM50.1774 1.96774C50.7195 1.96774 51.1613 2.4095 51.1613 2.95161C51.1613 3.49373 50.7195 3.93548 50.1774 3.93548C49.6353 3.93548 49.1936 3.49373 49.1936 2.95161C49.1936 2.4095 49.6353 1.96774 50.1774 1.96774Z" fill="#B5B5B5"/>
<path d="M58.0484 13.7742C59.6757 13.7742 61 12.4499 61 10.8226C61 9.19527 59.6757 7.87098 58.0484 7.87098C56.4211 7.87098 55.0968 9.19527 55.0968 10.8226C55.0968 12.4499 56.4211 13.7742 58.0484 13.7742ZM58.0484 9.83872C58.5905 9.83872 59.0323 10.2805 59.0323 10.8226C59.0323 11.3647 58.5905 11.8065 58.0484 11.8065C57.5063 11.8065 57.0645 11.3647 57.0645 10.8226C57.0645 10.2805 57.5063 9.83872 58.0484 9.83872Z" fill="#B5B5B5"/>
<path d="M22.629 14.7581H20.6613V20.6613H22.629V14.7581Z" fill="#B5B5B5"/>
<path d="M9.83871 7.87098V21.0686L13.0786 24.3085L14.4698 22.9173L11.8065 20.254V7.87098H9.83871Z" fill="#B5B5B5"/>
<path d="M1.96774 15.7419V26.9718L7.17537 32.1795L8.56656 30.7883L3.93548 26.1572V15.7419H1.96774Z" fill="#B5B5B5"/>
<path d="M21.6452 12.7903C23.2725 12.7903 24.5968 11.466 24.5968 9.83871C24.5968 8.21139 23.2725 6.88709 21.6452 6.88709C20.0178 6.88709 18.6935 8.21139 18.6935 9.83871C18.6935 11.466 20.0178 12.7903 21.6452 12.7903ZM21.6452 8.85484C22.1873 8.85484 22.629 9.2966 22.629 9.83871C22.629 10.3808 22.1873 10.8226 21.6452 10.8226C21.103 10.8226 20.6613 10.3808 20.6613 9.83871C20.6613 9.2966 21.103 8.85484 21.6452 8.85484Z" fill="#B5B5B5"/>
<path d="M10.8226 5.90323C12.4499 5.90323 13.7742 4.57894 13.7742 2.95161C13.7742 1.32429 12.4499 0 10.8226 0C9.19526 0 7.87097 1.32429 7.87097 2.95161C7.87097 4.57894 9.19526 5.90323 10.8226 5.90323ZM10.8226 1.96774C11.3647 1.96774 11.8065 2.4095 11.8065 2.95161C11.8065 3.49373 11.3647 3.93548 10.8226 3.93548C10.2805 3.93548 9.83871 3.49373 9.83871 2.95161C9.83871 2.4095 10.2805 1.96774 10.8226 1.96774Z" fill="#B5B5B5"/>
<path d="M2.95161 13.7742C4.57894 13.7742 5.90323 12.4499 5.90323 10.8226C5.90323 9.19527 4.57894 7.87098 2.95161 7.87098C1.32429 7.87098 0 9.19527 0 10.8226C0 12.4499 1.32429 13.7742 2.95161 13.7742ZM2.95161 9.83872C3.49373 9.83872 3.93548 10.2805 3.93548 10.8226C3.93548 11.3647 3.49373 11.8065 2.95161 11.8065C2.4095 11.8065 1.96774 11.3647 1.96774 10.8226C1.96774 10.2805 2.4095 9.83872 2.95161 9.83872Z" fill="#B5B5B5"/>
<path d="M41.1425 42.1372L39.3676 42.9873C39.5172 43.3001 39.652 43.6219 39.7681 43.9515L39.9442 44.4513L42.3064 45.0416V49.408L39.9442 49.9983L39.7681 50.4981C39.652 50.8287 39.5182 51.1495 39.3676 51.4623L39.1394 51.9395L40.3918 54.0283L37.3045 57.1156L35.2157 55.8632L34.7385 56.0914C34.4256 56.241 34.1039 56.3758 33.7743 56.4919L33.2745 56.668L32.6832 59.0322H28.3168L27.7265 56.67L27.2267 56.4938C26.8961 56.3777 26.5753 56.2439 26.2625 56.0934L25.7853 55.8651L23.6965 57.1176L20.066 53.4871L18.6749 54.8783L23.3915 59.595L25.9034 58.0887C25.9594 58.1123 26.0155 58.1359 26.0716 58.1586L26.78 61H34.22L34.9304 58.1595C34.9864 58.1369 35.0425 58.1133 35.0986 58.0897L37.6104 59.596L42.8702 54.3362L41.3639 51.8244C41.3875 51.7683 41.4111 51.7122 41.4338 51.6562L44.2742 50.9458V43.5058L41.4338 42.7954C41.3432 42.574 41.2458 42.3537 41.1425 42.1372Z" fill="#B5B5B5"/>
<path d="M16.7258 43.5058V50.9458L19.5662 51.6562C19.6558 51.8785 19.7532 52.0979 19.8575 52.3144L21.6324 51.4643C21.4828 51.1514 21.348 50.8297 21.2319 50.5001L21.0558 50.0003L18.6935 49.409V45.0426L21.0558 44.4523L21.2319 43.9525C21.348 43.6219 21.4818 43.3011 21.6324 42.9883L21.8606 42.5111L20.6082 40.4223L23.6955 37.3349L25.7843 38.5874L26.2615 38.3591C26.5744 38.2096 26.8961 38.0748 27.2257 37.9587L27.7255 37.7826L28.3158 35.4203H32.6822L33.2725 37.7826L33.7724 37.9587C34.1029 38.0748 34.4237 38.2086 34.7365 38.3591L35.2137 38.5874L37.3025 37.3349L40.933 40.9654L42.3242 39.5742L37.6075 34.8576L35.0957 36.3639C35.0396 36.3402 34.9835 36.3166 34.9274 36.294L34.22 33.4516H26.78L26.0696 36.292C26.0135 36.3147 25.9575 36.3383 25.9014 36.3619L23.3896 34.8556L18.1298 40.1154L19.6361 42.6272C19.6125 42.6833 19.5889 42.7393 19.5662 42.7954L16.7258 43.5058Z" fill="#B5B5B5"/>
<path d="M57.0586 37.4648C57.0596 37.4392 57.0645 37.4127 57.0645 37.3871C57.0645 33.1112 53.6357 29.6283 49.3844 29.526C48.5954 28.1613 47.2789 27.144 45.7136 26.7495C44.5684 23.7251 41.6394 21.6452 38.371 21.6452C37.1559 21.6452 35.9585 21.9305 34.8694 22.4736C33.3306 21.2998 31.4553 20.6613 29.5161 20.6613C27.2473 20.6613 25.0779 21.5379 23.4407 23.0826C22.5661 22.7923 21.6324 22.629 20.6613 22.629C16.289 22.629 12.5798 25.8364 11.9186 30.1271C10.1152 30.9388 8.72005 32.5051 8.15137 34.4709C3.59703 34.832 0 38.6455 0 43.2903C0 48.1723 3.97287 52.1452 8.85484 52.1452H14.7581V50.1774H8.85484C5.0571 50.1774 1.96774 47.0881 1.96774 43.2903C1.96774 39.4926 5.0571 36.4032 8.85484 36.4032C10.9574 36.4032 12.9172 37.3458 14.2327 38.9878L15.7695 37.758C14.3655 36.0047 12.3879 34.8851 10.2106 34.5506C10.9475 32.7285 12.7136 31.4839 14.7581 31.4839C16.5084 31.4839 18.1406 32.4264 19.0192 33.9426L20.7213 32.9567C19.4925 30.8345 17.2079 29.5161 14.7581 29.5161C14.52 29.5161 14.2858 29.5309 14.0536 29.5545C14.8948 26.6658 17.5641 24.5968 20.6613 24.5968C24.459 24.5968 27.5484 27.6861 27.5484 31.4839H29.5161C29.5161 28.3394 27.8632 25.5797 25.3868 24.0084C26.5694 23.1219 28.0157 22.629 29.5161 22.629C31.2064 22.629 32.8357 23.2548 34.1049 24.3921L34.6529 24.8831L35.2787 24.4964C36.2133 23.9189 37.2828 23.6129 38.371 23.6129C40.5148 23.6129 42.4619 24.8083 43.495 26.6216C40.6073 27.0053 38.371 29.4778 38.371 32.4677H40.3387C40.3387 30.2973 42.1038 28.5322 44.2742 28.5322C46.4446 28.5322 48.2097 30.2973 48.2097 32.4677C48.2097 34.6382 46.4446 36.4032 44.2742 36.4032V38.371C47.5298 38.371 50.1774 35.7234 50.1774 32.4677C50.1774 32.1588 50.1459 31.8577 50.1007 31.5606C52.6853 31.962 54.718 34.0409 55.0456 36.6492C54.4307 36.4947 53.7912 36.4032 53.129 36.4032C50.3437 36.4032 47.822 37.8288 46.3826 40.2177L48.068 41.233C49.1483 39.4404 51.0393 38.371 53.129 38.371C56.3847 38.371 59.0323 41.0186 59.0323 44.2742C59.0323 47.5298 56.3847 50.1774 53.129 50.1774H46.2419V52.1452H53.129C57.4689 52.1452 61 48.614 61 44.2742C61 41.3659 59.411 38.8275 57.0586 37.4648Z" fill="#B5B5B5"/>
<path d="M54.1129 44.2742H52.1452V46.2419H54.1129V44.2742Z" fill="#B5B5B5"/>
<path d="M29.5161 39.3548V39.4227C25.6397 39.9097 22.629 43.2195 22.629 47.2258C22.629 51.5657 26.1601 55.0968 30.5 55.0968C34.5063 55.0968 37.8161 52.0861 38.3031 48.2097H38.371V46.2419H38.3031C37.8574 42.6882 35.0376 39.8694 31.4839 39.4227V39.3548H29.5161ZM36.4032 47.2258C36.4032 50.4814 33.7556 53.129 30.5 53.129C27.2444 53.129 24.5968 50.4814 24.5968 47.2258C24.5968 43.9702 27.2444 41.3226 30.5 41.3226C33.7556 41.3226 36.4032 43.9702 36.4032 47.2258Z" fill="#B5B5B5"/>
<path d="M9.83871 45.2581H7.87097V47.2258H9.83871V45.2581Z" fill="#B5B5B5"/>
<path d="M24.5968 28.5323H22.629V30.5H24.5968V28.5323Z" fill="#B5B5B5"/>
<path d="M36.4032 27.5484H34.4355V29.5161H36.4032V27.5484Z" fill="#B5B5B5"/>
</svg>
